<svg version="1.2" xmlns="http://www.w3.org/2000/svg" viewBox="0 0 24 44" width="24" height="44"><style>.a{fill:#c75648}</style><path class="a" d="m22.7 29.9q0.5 0 0.5 0.9 0 0.2 0 0.3 0 0.1 0 0.2-0.1 0.1-0.1 0.2-0.1 0-0.1 0.1 0 0-0.1 0.1-0.1 0-0.1 0-0.1 0-0.3 0.1-0.1 0-0.2 0.1-3.6 0.9-6.2 3.7-2.6 2.7-3.4 6.5 0 0.1-0.1 0.2 0 0.2-0.1 0.3 0 0.2 0 0.2-0.1 0.7-0.7 0.4-0.3 0-0.4-0.7-0.6-3.8-3.3-6.8-2.7-2.9-6.4-3.8-0.1-0.1-0.2-0.1-0.2-0.1-0.2-0.1-0.1 0-0.2 0-0.1-0.1-0.1-0.1 0-0.1-0.1-0.1 0-0.1-0.1-0.2 0-0.1 0-0.2 0-0.1 0-0.3 0-1 0.5-1 0.3 0 0.7 0.2 5.6 1.5 8.7 6.2l0.3 0.4v-17.6q0-17.6 0.1-17.8 0.3-0.5 0.9-0.5 0.6 0 1 0.7v35.2l0.3-0.4q2.2-3.4 6-5.2 2.3-1.1 3.4-1.1z"/></svg>