<svg version="1.2" xmlns="http://www.w3.org/2000/svg" viewBox="0 0 877 529" width="877" height="529"><style>.ely{fill:#fff}.star{fill:#c75648}</style><path class="ely" d="m296.4 299.7h-3.2q-19.7 39.5-39.7 61-20 21.6-41.6 29.7-21.6 8-49.1 8h-4.2q-12 0-16.4-5.9-4.4-6-4.4-18v-160.6h10.4q27 0 43.4 5.4 16.4 5.5 26.5 18 10.2 12.5 18.5 35.3h3.1v-120.6h-3.1q-11.5 29.7-30.2 41.6-18.7 12-58.2 12h-10.4v-169h19.8q29.6 0 49.9 8.1 20.2 8 36.9 26.7 16.6 18.8 34.8 52.6h3.1l-8.3-95.7h-273.4v3.1q16.6 0 24.7 7.8 8 7.8 10.3 20.8 2.4 13 2.4 35.9v243.3q0 22.8-2.4 35.8-2.3 13-10.3 20.8-8.1 7.8-24.7 7.8v3.2h281.7zm13 103.9v3.1h141.4v-3.1q-14.5 0-18.7-11.4-4.2-11.5-4.2-39.5v-352.5h-2l-120.1 18.7v3.1q14 5.2 20.3 15.1 6.2 9.9 6.2 33.8v281.8q0 28-4.2 39.5-4.1 11.4-18.7 11.4zm323.9-269.3v3.2q12.5 2 19.5 11.1 7 9.1 7 25.2 0 16.2-8.8 41.6l-27.6 78-44.2-111.2q-5.2-13-5.2-23.4 0-19.8 19.8-21.3v-3.2h-145.1v3.2q12 2 19 14.3 7 12.2 20 44.4l90.5 224.6-6.8 19.2q-8.8 23.9-18.7 35.1-9.9 11.2-22.9 11.2-11.4 0-25.4-8.3-14.1-8.4-32.8-25.5h-3.1l-5.2 73.8q18.7 2.1 28.6 2.1 26.5 0 48.9-19.5 22.3-19.5 36.3-59.5l82.7-230.8q13.5-37.5 27.3-58 13.8-20.5 26.2-23.1v-3.2z"/><path class="star" d="m681.4 319.1q20.1 0 38.5-7.7 17.4-7.3 32.3-22.1 14.6-14.4 22-32.4 7.5-17.9 7.5-38.8 0 20.4 7.2 38.1 7.2 17.7 22.4 33.1 14 14.3 32.3 22.1 18.2 7.7 38.5 7.7-20.3 0-38.5 7.7-18.3 7.8-32.3 22.1-15.2 15.4-22.4 33.1-7.2 17.7-7.2 38.1 0-20.9-7.5-38.9-7.4-17.9-22-32.3-14.9-14.8-32.3-22.1-18.4-7.7-38.5-7.7z"/></svg>