<svg version="1.2" xmlns="http://www.w3.org/2000/svg" viewBox="0 0 400 421" width="400" height="421"><defs><linearGradient id="P" gradientUnits="userSpaceOnUse"/><linearGradient id="g1" x2="1" href="#P" gradientTransform="matrix(140.639,0,0,141.577,259.561,250.423)"><stop stop-color="#f1b83b"/><stop offset="1" stop-color="#c75648"/></linearGradient><linearGradient id="g2" x2="1" href="#P" gradientTransform="matrix(208.608,0,0,210,191.392,0)"><stop stop-color="#f1b83b"/><stop offset="1" stop-color="#c75648"/></linearGradient><linearGradient id="g3" x2="1" href="#P" gradientTransform="matrix(267,0,0,369.33,0,51.67)"><stop stop-color="#f1b83b"/><stop offset="1" stop-color="#c75648"/></linearGradient></defs><style>.a{fill:url(#g1)}.b{fill:url(#g2);stroke:#fff;stroke-miterlimit:100;stroke-width:0}.c{fill:url(#g3)}</style><path class="a" d="m259.6 321.3q14 0 26.9-5.4 12.2-5.2 22.7-15.6 10.2-10 15.5-22.7 5.1-12.5 5.1-27.2 0 14.3 5.1 26.8 5 12.3 15.7 23.1 9.8 10.1 22.6 15.6 12.8 5.4 27 5.4-14.2 0-27 5.2-12.8 5.6-22.6 15.6-10.7 10.8-15.7 23.2-5.1 12.4-5.1 26.7 0-14.7-5.1-27.3-5.3-12.6-15.5-22.6-10.5-10.4-22.7-15.6-12.9-5.2-26.9-5.2z"/><path class="b" d="m191.4 105.1q20.9 0 40-8 18.1-7.7 33.6-23.2 15.1-14.7 23-33.5 7.6-18.7 7.6-40.4 0 21.2 7.5 39.7 7.5 18.2 23.3 34.2 14.6 15 33.6 23.2 18.9 8 40 8-21.1 0-40 7.8-19 8.2-33.6 23.2-15.8 16-23.3 34.2-7.5 18.5-7.5 39.7 0-21.7-7.6-40.5-7.9-18.7-23-33.4-15.5-15.5-33.6-23.2-19.1-7.8-40-7.8z"/><path class="c" d="m0 236.5q26.7 0 51.2-14.1 23.2-13.5 43-40.7 19.4-26 29.4-59 9.8-32.8 9.8-71 0 37.3 9.6 69.7 9.5 32.2 29.8 60.3 18.7 26.3 43 40.7 24.3 14.1 51.2 14.1-26.9 0-51.2 13.8-24.3 14.3-43 40.7-20.3 28.1-29.8 60.2-9.6 32.5-9.6 69.8 0-38.2-9.8-71.3-10-32.7-29.4-58.7-19.8-27.3-43-40.7-24.5-13.8-51.2-13.8z"/></svg>